<?xml version="1.0" encoding="utf-8"?>
<svg xmlns="http://www.w3.org/2000/svg" xmlns:xlink="http://www.w3.org/1999/xlink" width="24" height="5000" viewBox="0 0 24 5000">

    <!-- pin -->
    <svg id="prm_pin" width="24" height="24" viewBox="0 0 24 24" y="0">
        <path d="M16,12V4H17V2H7V4H8V12L6,14V16H11.2V22H12.8V16H18V14L16,12Z"/>
    </svg>

    <!-- unpin -->
    <svg id="prm_unpin" width="24" height="24" viewBox="0 0 24 24" y="24">
        <path d="M2,5.27L3.28,4L20,20.72L18.73,22L12.8,16.07V22H11.2V16H6V14L8,12V11.27L2,5.27M16,12L18,14V16H17.82L8,6.18V4H7V2H17V4H16V12Z"/>
    </svg>

    <!-- power -->
    <svg id="prm-power" width="24" height="24" viewBox="0 0 24 24" y="48">
        <path d="M16.56,5.44L15.11,6.89C16.84,7.94 18,9.83 18,12A6,6 0 0,1 12,18A6,6 0 0,1 6,12C6,9.83 7.16,7.94 8.88,6.88L7.44,5.44C5.36,6.88 4,9.28 4,12A8,8 0 0,0 12,20A8,8 0 0,0 20,12C20,9.28 18.64,6.88 16.56,5.44M13,3H11V13H13"/>
    </svg>

    <!-- expand all  (Custom made icon by Asaf) -->
    <svg id="expand-list" width="24" height="24" viewBox="-2 -4 24 24" y="72">
        <polyline points="0 10 8.63 10 8.63 8 0 8"/>
        <polyline points="0 16 8.63 16 8.63 14 0 14"/>
        <polyline points="0 4 8.63 4 8.63 2 0 2"/>
        <path d="M17.17,18.17L14,15l-1.41,1.41L17.17,21l4.59-4.59L20.34,15M17.17,5.83L20.34,9l1.41-1.41L17.17,3,12.58,7.59,14,9Z"
              transform="translate(-2.24 -3)"/>
    </svg>

    <!-- collapse all (Custom made icon by Asaf) -->
    <svg id="collapse-list" width="24" height="24" viewBox="-2 -4 24 24" y="96">
        <polyline points="0 9 8.63 9 8.63 7 0 7"/>
        <polyline points="0 13 8.63 13 8.63 11 0 11"/>
        <polyline points="0 5 8.63 5 8.63 3 0 3"/>
        <path d="M21.76,5.41L20.34,4,17.17,7.17,14,4,12.58,5.41,17.17,10m-4.59,8.59L14,20l3.17-3.17L20.34,20l1.41-1.41L17.17,14Z"
              transform="translate(-2.24 -4)"/>
    </svg>

    <!-- more menu (three dots horizontal) -->
    <svg id="dots-horizontal" width="24" height="24" viewBox="0 0 24 24" y="120">
        <path d="M16,12A2,2 0 0,1 18,10A2,2 0 0,1 20,12A2,2 0 0,1 18,14A2,2 0 0,1 16,12M10,12A2,2 0 0,1 12,10A2,2 0 0,1 14,12A2,2 0 0,1 12,14A2,2 0 0,1 10,12M4,12A2,2 0 0,1 6,10A2,2 0 0,1 8,12A2,2 0 0,1 6,14A2,2 0 0,1 4,12Z"/>
    </svg>

    <!-- email outline -->
    <svg id="envelope-outline" width="24" height="24" viewBox="0 0 24 24" y="144">
        <path d="M20,4H4A2,2 0 0,0 2,6V18A2,2 0 0,0 4,20H20A2,2 0 0,0 22,18V6A2,2 0 0,0 20,4M20,18H4V8L12,13L20,8V18M20,6L12,11L4,6V6H20V6Z"/>
    </svg>

    <!-- library -->
    <svg id="library" width="24" height="24" viewBox="0 0 24 24" y="168">
        <path d="M0 0h24v24H0z" fill="none"/>
        <path d="M12 11.55C9.64 9.35 6.48 8 3 8v11c3.48 0 6.64 1.35 9 3.55 2.36-2.19 5.52-3.55 9-3.55V8c-3.48 0-6.64 1.35-9 3.55zM12 8c1.66 0 3-1.34 3-3s-1.34-3-3-3-3 1.34-3 3 1.34 3 3 3z"/>
    </svg>

    <!-- sign in -->
    <svg id="sign-in" width="24" height="24" viewBox="0 0 24 24" y="192">
        <path d="M10,17.25V14H3V10H10V6.75L15.25,12L10,17.25M8,2H17A2,2 0 0,1 19,4V20A2,2 0 0,1 17,22H8A2,2 0 0,1 6,20V16H8V20H17V4H8V8H6V4A2,2 0 0,1 8,2Z"/>
    </svg>

    <!-- sign out -->
    <svg id="sign-out" width="24" height="24" viewBox="0 0 24 24" y="216">
        <path d="M17,17.25V14H10V10H17V6.75L22.25,12L17,17.25M13,2A2,2 0 0,1 15,4V8H13V4H4V20H13V16H15V20A2,2 0 0,1 13,22H4A2,2 0 0,1 2,20V4A2,2 0 0,1 4,2H13Z"/>
    </svg>

    <!-- close-->
    <svg id="close" width="24" height="24" viewBox="0 0 24 24" y="240">
        <path d="M19,6.41L17.59,5L12,10.59L6.41,5L5,6.41L10.59,12L5,17.59L6.41,19L12,13.41L17.59,19L19,17.59L13.41,12L19,6.41Z"/>
    </svg>

    <!-- magnifying-glass (specifically transformed to flip the original icon) -->
    <svg id="magnifying-glass" width="24" height="24" viewBox="0 0 24 24" y="264" style="transform:scale(-1,1)">
        <path d="M9.5,3A6.5,6.5 0 0,1 16,9.5C16,11.11 15.41,12.59 14.44,13.73L14.71,14H15.5L20.5,19L19,20.5L14,15.5V14.71L13.73,14.44C12.59,15.41 11.11,16 9.5,16A6.5,6.5 0 0,1 3,9.5A6.5,6.5 0 0,1 9.5,3M9.5,5C7,5 5,7 5,9.5C5,12 7,14 9.5,14C12,14 14,12 14,9.5C14,7 12,5 9.5,5Z"/>
    </svg>

    <!-- filter outline -->
    <svg id="filter" width="24" height="24" viewBox="0 0 24 24" y="288">
        <path d="M3,2H21V2H21V4H20.92L15,9.92V22.91L9,16.91V9.91L3.09,4H3V2M11,16.08L13,18.08V9H13.09L18.09,4H5.92L10.92,9H11V16.08Z"/>
    </svg>

    <!-- filter filled -->
    <svg id="prm-filter" width="24" height="24" viewBox="0 0 24 24" y="312">
        <path d="M3,2H21V2H21V4H20.92L14,10.92V22.91L10,18.91V10.91L3.09,4H3V2Z"/>
    </svg>

    <!-- filter filled with x for close  -->
    <svg id="filterOut" width="24" height="24" viewBox="0 0 24 24" y="336">
        <path d="M14.76,20.83L17.6,18L14.76,15.17L16.17,13.76L19,16.57L21.83,13.76L23.24,15.17L20.43,18L23.24,20.83L21.83,22.24L19,19.4L16.17,22.24L14.76,20.83M2,2H20V2H20V4H19.92L13,10.92V22.91L9,18.91V10.91L2.09,4H2V2Z"></path>
    </svg>

    <!-- menu (hamburger) -->
    <svg id="hamburger" width="24" height="24" viewBox="0 0 24 24" y="360">
        <path d="M3,6H21V8H3V6M3,11H21V13H3V11M3,16H21V18H3V16Z"/>
    </svg>

    <!-- chevron right -->
    <svg id="chevron-right" width="24" height="24" viewBox="0 0 24 24" y="384">
        <path d="M8.59,16.58L13.17,12L8.59,7.41L10,6L16,12L10,18L8.59,16.58Z"/>
    </svg>

    <!-- chevron left -->
    <svg id="chevron-left" width="24" height="24" viewBox="0 0 24 24" y="408">
        <path d="M15.41,16.58L10.83,12L15.41,7.41L14,6L8,12L14,18L15.41,16.58Z"/>
    </svg>

    <!-- chevron up -->
    <svg id="chevron-up" width="24" height="24" viewBox="0 0 24 24" y="432">
        <path d="M7.41,15.41L12,10.83L16.59,15.41L18,14L12,8L6,14L7.41,15.41Z"/>
    </svg>

    <!-- chevron down -->
    <svg id="chevron-down" width="24" height="24" viewBox="0 0 24 24" y="456">
        <path d="M7.41,8.58L12,13.17L16.59,8.58L18,10L12,16L6,10L7.41,8.58Z"/>
    </svg>

    <!-- book open -->
    <svg id="book-open" width="24" height="24" viewBox="0 0 24 24" y="480">
        <path d="M19,2L14,6.5V17.5L19,13V2M6.5,5C4.55,5 2.45,5.4 1,6.5V21.16C1,21.41 1.25,21.66 1.5,21.66C1.6,21.66 1.65,21.59 1.75,21.59C3.1,20.94 5.05,20.5 6.5,20.5C8.45,20.5 10.55,20.9 12,22C13.35,21.15 15.8,20.5 17.5,20.5C19.15,20.5 20.85,20.81 22.25,21.56C22.35,21.61 22.4,21.59 22.5,21.59C22.75,21.59 23,21.34 23,21.09V6.5C22.4,6.05 21.75,5.75 21,5.5V7.5L21,13V19C19.9,18.65 18.7,18.5 17.5,18.5C15.8,18.5 13.35,19.15 12,20V13L12,8.5V6.5C10.55,5.4 8.45,5 6.5,5V5Z"/>
    </svg>

    <!-- open in new -->
    <svg id="open-in-new" width="24" height="24" viewBox="0 0 24 24" y="504">
        <path d="M14,3V5H17.59L7.76,14.83L9.17,16.24L19,6.41V10H21V3M19,19H5V5H12V3H5C3.89,3 3,3.9 3,5V19A2,2 0 0,0 5,21H19A2,2 0 0,0 21,19V12H19V19Z"/>
    </svg>

    <!-- link -->
    <svg id="link" width="24" height="24" viewBox="0 0 24 24" y="528">
        <path d="M10.59,13.41C11,13.8 11,14.44 10.59,14.83C10.2,15.22 9.56,15.22 9.17,14.83C7.22,12.88 7.22,9.71 9.17,7.76V7.76L12.71,4.22C14.66,2.27 17.83,2.27 19.78,4.22C21.73,6.17 21.73,9.34 19.78,11.29L18.29,12.78C18.3,11.96 18.17,11.14 17.89,10.36L18.36,9.88C19.54,8.71 19.54,6.81 18.36,5.64C17.19,4.46 15.29,4.46 14.12,5.64L10.59,9.17C9.41,10.34 9.41,12.24 10.59,13.41M13.41,9.17C13.8,8.78 14.44,8.78 14.83,9.17C16.78,11.12 16.78,14.29 14.83,16.24V16.24L11.29,19.78C9.34,21.73 6.17,21.73 4.22,19.78C2.27,17.83 2.27,14.66 4.22,12.71L5.71,11.22C5.7,12.04 5.83,12.86 6.11,13.65L5.64,14.12C4.46,15.29 4.46,17.19 5.64,18.36C6.81,19.54 8.71,19.54 9.88,18.36L13.41,14.83C14.59,13.66 14.59,11.76 13.41,10.59C13,10.2 13,9.56 13.41,9.17Z"/>
    </svg>

    <!-- reload -->
    <svg id="reload" width="24" height="24" viewBox="0 0 24 24" y="552">
        <path d="M19,12H22.32L17.37,16.95L12.42,12H16.97C17,10.46 16.42,8.93 15.24,7.75C12.9,5.41 9.1,5.41 6.76,7.75C4.42,10.09 4.42,13.9 6.76,16.24C8.6,18.08 11.36,18.47 13.58,17.41L15.05,18.88C12,20.69 8,20.29 5.34,17.65C2.22,14.53 2.23,9.47 5.35,6.35C8.5,3.22 13.53,3.21 16.66,6.34C18.22,7.9 19,9.95 19,12Z"/>
    </svg>

    <!-- clipboard -->
    <svg id="clipboard" width="24" height="24" viewBox="0 0 24 24" y="576">
        <path d="M17,9H7V7H17M17,13H7V11H17M14,17H7V15H14M12,3A1,1 0 0,1 13,4A1,1 0 0,1 12,5A1,1 0 0,1 11,4A1,1 0 0,1 12,3M19,3H14.82C14.4,1.84 13.3,1 12,1C10.7,1 9.6,1.84 9.18,3H5A2,2 0 0,0 3,5V19A2,2 0 0,0 5,21H19A2,2 0 0,0 21,19V5A2,2 0 0,0 19,3Z"/>
    </svg>

    <!-- check -->
    <svg id="check" width="24" height="24" viewBox="0 0 24 24" y="600">
        <path d="M21,7L9,19L3.5,13.5L4.91,12.09L9,16.17L19.59,5.59L21,7Z"/>
    </svg>

    <!-- exclude -->
    <svg id="exclude" width="24" height="24" viewBox="0 0 24 24" y="624">
        <path d="M16.5,18.4c-1.2,1-2.8,1.6-4.5,1.6c-3.9,0-7-3.1-7-7c0-1.7,0.6-3.3,1.6-4.5 M2.9,2.3L1.6,3.6l3.5,3.5C3.8,8.7,3,10.8,3,13
    c0,5,4,9,9,9c2.3,0,4.3-0.8,5.9-2.2l2.2,2.2l1.3-1.3L3.9,3.3L2.9,2.3 M12,6c3.9,0,7,3.1,7,7c0,0.8-0.2,1.6-0.4,2.4l1.5,1.5
    c0.6-1.2,0.9-2.5,0.9-3.9c0-5-4-9-9-9c-1.4,0-2.7,0.3-3.9,0.9l1.5,1.5C10.4,6.2,11.2,6,12,6z M17.8,10.3l-1.4-1.4l-2.9,2.9l1.4,1.4
    L17.8,10.3z M10.2,15.2l-3.1-3.1l-1.4,1.4l4.5,4.5l3.4-3.4l-1.4-1.4L10.2,15.2z"/>
    </svg>

    <!-- labels more -->
    <svg id="label-more" width="24" height="24" viewBox="0 0 24 24" y="648">
        <path d="M19,13.5A1.5,1.5 0 0,1 17.5,12A1.5,1.5 0 0,1 19,10.5A1.5,1.5 0 0,1 20.5,12A1.5,1.5 0 0,1 19,13.5M14,13.5A1.5,1.5 0 0,1 12.5,12A1.5,1.5 0 0,1 14,10.5A1.5,1.5 0 0,1 15.5,12A1.5,1.5 0 0,1 14,13.5M9,13.5A1.5,1.5 0 0,1 7.5,12A1.5,1.5 0 0,1 9,10.5A1.5,1.5 0 0,1 10.5,12A1.5,1.5 0 0,1 9,13.5M22,3H7C6.31,3 5.77,3.35 5.41,3.88L0,12L5.41,20.11C5.77,20.64 6.37,21 7.06,21H22A2,2 0 0,0 24,19V5C24,3.89 23.1,3 22,3Z"/>
    </svg>

    <!-- send -->
    <svg id="send" width="24" height="24" viewBox="0 0 24 24" y="672">
        <path d="M2,21L23,12L2,3V10L17,12L2,14V21Z"/>
    </svg>

    <!-- pencil -->
    <svg id="pencil" width="24" height="24" viewBox="0 0 24 24" y="696">
        <path d="M20.71,7.04C21.1,6.65 21.1,6 20.71,5.63L18.37,3.29C18,2.9 17.35,2.9 16.96,3.29L15.12,5.12L18.87,8.87M3,17.25V21H6.75L17.81,9.93L14.06,6.18L3,17.25Z"/>
    </svg>

    <!-- back to search (Custom made icon by Asaf) -->
    <svg id="back-to-search" width="24" height="24" viewBox="0 0 16 10" y="720">
        <path d="M18.13,11.66a2.42,2.42,0,0,1-4,1.83l-0.1.1v0.29l-1.86,1.86-0.56-.56,1.86-1.86h0.29l0.1-.1a2.41,2.41,0,1,1,4.25-1.57m-0.74,0a1.67,1.67,0,1,0-1.67,1.67A1.66,1.66,0,0,0,17.39,11.66Z"
              transform="translate(-4.73 -7.94)"/>
        <path d="M10.37,16L6.89,12.5,10.37,9,9.3,7.94,4.73,12.5,9.3,17.06Z" transform="translate(-4.73 -7.94)"/>
    </svg>

    <!-- emoji - cool -->
    <svg id="emoticon-cool" width="24" height="24" viewBox="0 0 24 24" y="744">
        <path d="M19,10C19,11.38 16.88,12.5 15.5,12.5C14.12,12.5 12.75,11.38 12.75,10H11.25C11.25,11.38 9.88,12.5 8.5,12.5C7.12,12.5 5,11.38 5,10H4.25C4.09,10.64 4,11.31 4,12A8,8 0 0,0 12,20A8,8 0 0,0 20,12C20,11.31 19.91,10.64 19.75,10H19M12,4C9.04,4 6.45,5.61 5.07,8H18.93C17.55,5.61 14.96,4 12,4M22,12A10,10 0 0,1 12,22A10,10 0 0,1 2,12A10,10 0 0,1 12,2A10,10 0 0,1 22,12M12,17.23C10.25,17.23 8.71,16.5 7.81,15.42L9.23,14C9.68,14.72 10.75,15.23 12,15.23C13.25,15.23 14.32,14.72 14.77,14L16.19,15.42C15.29,16.5 13.75,17.23 12,17.23Z"/>
    </svg>

    <!-- emoji - beach -->
    <svg id="beach" width="24" height="24" viewBox="0 0 24 24" y="768">
        <path d="M15,18.54C17.13,18.21 19.5,18 22,18V22H5C5,21.35 8.2,19.86 13,18.9V12.4C12.16,12.65 11.45,13.21 11,13.95C10.39,12.93 9.27,12.25 8,12.25C6.73,12.25 5.61,12.93 5,13.95C5.03,10.37 8.5,7.43 13,7.04V7A1,1 0 0,1 14,6A1,1 0 0,1 15,7V7.04C19.5,7.43 22.96,10.37 23,13.95C22.39,12.93 21.27,12.25 20,12.25C18.73,12.25 17.61,12.93 17,13.95C16.55,13.21 15.84,12.65 15,12.39V18.54M7,2A5,5 0 0,1 2,7V2H7Z"/>
    </svg>

    <!-- emoji - beer -->
    <svg id="beer" width="24" height="24" viewBox="0 0 24 24" y="792">
        <path d="M4,2H19L17,22H6L4,2M6.2,4L7.8,20H8.8L7.43,6.34C8.5,6 9.89,5.89 11,7C12.56,8.56 15.33,7.69 16.5,7.23L16.8,4H6.2Z"/>
    </svg>

    <!-- emoji - sun -->
    <svg id="sun" width="24" height="24" viewBox="0 0 24 24" y="816">
        <path d="M12,7A5,5 0 0,1 17,12A5,5 0 0,1 12,17A5,5 0 0,1 7,12A5,5 0 0,1 12,7M12,9A3,3 0 0,0 9,12A3,3 0 0,0 12,15A3,3 0 0,0 15,12A3,3 0 0,0 12,9M12,2L14.39,5.42C13.65,5.15 12.84,5 12,5C11.16,5 10.35,5.15 9.61,5.42L12,2M3.34,7L7.5,6.65C6.9,7.16 6.36,7.78 5.94,8.5C5.5,9.24 5.25,10 5.11,10.79L3.34,7M3.36,17L5.12,13.23C5.26,14 5.53,14.78 5.95,15.5C6.37,16.24 6.91,16.86 7.5,17.37L3.36,17M20.65,7L18.88,10.79C18.74,10 18.47,9.23 18.05,8.5C17.63,7.78 17.1,7.15 16.5,6.64L20.65,7M20.64,17L16.5,17.36C17.09,16.85 17.62,16.22 18.04,15.5C18.46,14.77 18.73,14 18.87,13.21L20.64,17M12,22L9.59,18.56C10.33,18.83 11.14,19 12,19C12.82,19 13.63,18.83 14.37,18.56L12,22Z"/>
    </svg>

    <!-- bell -->
    <svg id="bell" width="24" height="24" viewBox="0 0 24 24" y="840">
        <path d="M16,17H7V10.5C7,8 9,6 11.5,6C14,6 16,8 16,10.5M18,16V10.5C18,7.43 15.86,4.86 13,4.18V3.5A1.5,1.5 0 0,0 11.5,2A1.5,1.5 0 0,0 10,3.5V4.18C7.13,4.86 5,7.43 5,10.5V16L3,18V19H20V18M11.5,22A2,2 0 0,0 13.5,20H9.5A2,2 0 0,0 11.5,22Z"/>
    </svg>

    <!-- multiple items (Custom made icon by Asaf) -->
    <svg id="multiple-items" width="24" height="24" viewBox="0 0 24 24" y="864">
        <path d="M17,9h5.5L17,3.5V9 M10,2h8l6,6v12c0,1.1-0.9,2-2,2H10c-1.1,0-2-0.9-2-2V4C8,2.9,8.9,2,10,2 M15,4h-5v16h5h7v-9h-7V4z"/>
        <path d="M7.3,20H6V4h1.3V2H6C4.9,2,4,2.9,4,4v16c0,1.1,0.9,2,2,2h1.3V20z"/>
        <path d="M3.3,20H2V4h1.3V2H2C0.9,2,0,2.9,0,4v16c0,1.1,0.9,2,2,2h1.3V20z"/>
    </svg>

    <!-- text cursor -->
    <svg id="cursor-text" width="24" height="24" viewBox="0 0 24 24" y="888">
        <path d="M13,17a1,1,0,0,0,1,1h2v2H13.5c-0.55,0-1.5-.45-1.5-1,0,0.55-.95,1-1.5,1H8V18h2a1,1,0,0,0,1-1V7a1,1,0,0,0-1-1H8V4h2.5c0.55,0,1.5.45,1.5,1,0-.55.95-1,1.5-1H16V6H14a1,1,0,0,0-1,1V17Z"/>
    </svg>

    <!-- square brackets -->
    <svg id="square-brackets" width="24" height="24" viewBox="0 0 24 24" y="912">
        <path d="M15,4V6H18V18H15V20H20V4M4,4V20H9V18H6V6H9V4H4Z"/>
    </svg>

    <!-- plus -->
    <svg id="plus" width="24" height="24" viewBox="0 0 24 24" y="936">
        <path d="M19,13H13V19H11V13H5V11H11V5H13V11H19V13Z"/>
    </svg>

    <!-- replay -->
    <svg id="replay" width="24" height="24" viewBox="0 0 24 24" y="960">
        <path d="M12,5V1L7,6L12,11V7A6,6 0 0,1 18,13A6,6 0 0,1 12,19A6,6 0 0,1 6,13H4A8,8 0 0,0 12,21A8,8 0 0,0 20,13A8,8 0 0,0 12,5Z"/>
    </svg>

    <!-- trash -->
    <svg id="trash" width="24" height="24" viewBox="0 0 24 24" y="984">
        <path d="M19,4H15.5L14.5,3H9.5L8.5,4H5V6H19M6,19A2,2 0 0,0 8,21H16A2,2 0 0,0 18,19V7H6V19Z"/>
    </svg>

    <!-- save -->
    <svg id="save" width="24" height="24" viewBox="0 0 24 24" y="1008">
        <path d="M15,9H5V5H15M12,19A3,3 0 0,1 9,16A3,3 0 0,1 12,13A3,3 0 0,1 15,16A3,3 0 0,1 12,19M17,3H5C3.89,3 3,3.9 3,5V19A2,2 0 0,0 5,21H19A2,2 0 0,0 21,19V7L17,3Z"/>
    </svg>

    <!-- restore -->
    <svg id="restore" width="24" height="24" viewBox="0 0 24 24" y="1032">
        <path d="M13 3c-4.97 0-9 4.03-9 9H1l3.89 3.89.07.14L9 12H6c0-3.87 3.13-7 7-7s7 3.13 7 7-3.13 7-7 7c-1.93 0-3.68-.79-4.94-2.06l-1.42 1.42C8.27 19.99 10.51 21 13 21c4.97 0 9-4.03 9-9s-4.03-9-9-9zm-1 5v5l4.28 2.54.72-1.21-3.5-2.08V8H12z"/>
    </svg>

    <!-- timer -->
    <svg id="timer" width="24" height="24" viewBox="0 0 24 24" y="1056">
        <path d="M15 1H9v2h6V1zm-4 13h2V8h-2v6zm8.03-6.61l1.42-1.42c-.43-.51-.9-.99-1.41-1.41l-1.42 1.42A8.962 8.962 0 0 0 12 4c-4.97 0-9 4.03-9 9s4.02 9 9 9a8.994 8.994 0 0 0 7.03-14.61zM12 20c-3.87 0-7-3.13-7-7s3.13-7 7-7 7 3.13 7 7-3.13 7-7 7z"/>
    </svg>

    <!-- error -->
    <svg id="error" width="24" height="24" viewBox="0 0 24 24" y="1080">
        <path d="M12 2C6.48 2 2 6.48 2 12s4.48 10 10 10 10-4.48 10-10S17.52 2 12 2zm1 15h-2v-2h2v2zm0-4h-2V7h2v6z"/>
    </svg>

    <!-- error outlined alt -->
    <svg id="error-outline" width="24" height="24" viewBox="0 0 24 24" y="1104">
        <path d="M11 15h2v2h-2zm0-8h2v6h-2zm.99-5C6.47 2 2 6.48 2 12s4.47 10 9.99 10C17.52 22 22 17.52 22 12S17.52 2 11.99 2zM12 20c-4.42 0-8-3.58-8-8s3.58-8 8-8 8 3.58 8 8-3.58 8-8 8z"/>
    </svg>

    <!-- flag -->
    <svg id="flag" width="24" height="24" viewBox="0 0 24 24" y="1128">
        <path d="M14.4 6L14 4H5v17h2v-7h5.6l.4 2h7V6z"/>
    </svg>

    <!-- keyboard-return -->
    <svg id="keyboard-return" width="24" height="24" viewBox="0 0 24 24" y="1152">
        <path d="M19,7V11H5.83L9.41,7.41L8,6L2,12L8,18L9.41,16.58L5.83,13H21V7H19Z"/>
    </svg>

    <!-- account card details -->
    <svg id="account-card-details" width="24" height="24" viewBox="0 0 24 24" y="1176">
        <path d="M2,3H22C23.05,3 24,3.95 24,5V19C24,20.05 23.05,21 22,21H2C0.95,21 0,20.05 0,19V5C0,3.95 0.95,3 2,3M14,6V7H22V6H14M14,8V9H21.5L22,9V8H14M14,10V11H21V10H14M8,13.91C6,13.91 2,15 2,17V18H14V17C14,15 10,13.91 8,13.91M8,6A3,3 0 0,0 5,9A3,3 0 0,0 8,12A3,3 0 0,0 11,9A3,3 0 0,0 8,6Z"/>
    </svg>

    <!-- earth (language) -->
    <svg id="earth" width="24" height="24"  viewBox="0 0 24 24" y="1200">
        <path d="M17.9,17.39C17.64,16.59 16.89,16 16,16H15V13A1,1 0 0,0 14,12H8V10H10A1,1 0 0,0 11,9V7H13A2,2 0 0,0 15,5V4.59C17.93,5.77 20,8.64 20,12C20,14.08 19.2,15.97 17.9,17.39M11,19.93C7.05,19.44 4,16.08 4,12C4,11.38 4.08,10.78 4.21,10.21L9,15V16A2,2 0 0,0 11,18M12,2A10,10 0 0,0 2,12A10,10 0 0,0 12,22A10,10 0 0,0 22,12A10,10 0 0,0 12,2Z"/>
    </svg>

    <!-- help / info -->
    <svg id="help-circle-outline" width="24" height="24" viewBox="0 0 24 24" y="1224">
        <path d="M11,18H13V16H11V18M12,2A10,10 0 0,0 2,12A10,10 0 0,0 12,22A10,10 0 0,0 22,12A10,10 0 0,0 12,2M12,20C7.59,20 4,16.41 4,12C4,7.59 7.59,4 12,4C16.41,4 20,7.59 20,12C20,16.41 16.41,20 12,20M12,6A4,4 0 0,0 8,10H10A2,2 0 0,1 12,8A2,2 0 0,1 14,10C14,12 11,11.75 11,15H13C13,12.75 16,12.5 16,10A4,4 0 0,0 12,6Z"/>
    </svg>

    <!-- ???? -->
    <svg id="rss" width="24" height="24" viewBox="0 0 24 24" y="1248">
        <path d="M6.18,15.64A2.18,2.18 0 0,1 8.36,17.82C8.36,19 7.38,20 6.18,20C5,20 4,19 4,17.82A2.18,2.18 0 0,1 6.18,15.64M4,4.44A15.56,15.56 0 0,1 19.56,20H16.73A12.73,12.73 0 0,0 4,7.27V4.44M4,10.1A9.9,9.9 0 0,1 13.9,20H11.07A7.07,7.07 0 0,0 4,12.93V10.1Z"></path>
    </svg>

    <!-- ???? -->
    <svg id="alert" width="24" height="24" viewBox="0 0 24 24" y="1272">
        <path d="M16,17H7V10.5C7,8 9,6 11.5,6C14,6 16,8 16,10.5M18,16V10.5C18,7.43 15.86,4.86 13,4.18V3.5A1.5,1.5 0 0,0 11.5,2A1.5,1.5 0 0,0 10,3.5V4.18C7.13,4.86 5,7.43 5,10.5V16L3,18V19H20V18M11.5,22A2,2 0 0,0 13.5,20H9.5A2,2 0 0,0 11.5,22Z"/>
    </svg>

    <!-- ???? -->
    <svg id="alerted" width="24" height="24" viewBox="0 0 24 24" y="1296">
        <path d="M11.5,22C11.64,22 11.77,22 11.9,21.96C12.55,21.82 13.09,21.38 13.34,20.78C13.44,20.54 13.5,20.27 13.5,20H9.5A2,2 0 0,0 11.5,22M18,10.5C18,7.43 15.86,4.86 13,4.18V3.5A1.5,1.5 0 0,0 11.5,2A1.5,1.5 0 0,0 10,3.5V4.18C7.13,4.86 5,7.43 5,10.5V16L3,18V19H20V18L18,16M19.97,10H21.97C21.82,6.79 20.24,3.97 17.85,2.15L16.42,3.58C18.46,5 19.82,7.35 19.97,10M6.58,3.58L5.15,2.15C2.76,3.97 1.18,6.79 1,10H3C3.18,7.35 4.54,5 6.58,3.58Z"></path>
    </svg>

    <!-- ???? -->
    <svg id="lock" width="24" height="24" viewBox="0 0 24 24" y="1320">
        <path d="M12,17C10.89,17 10,16.1 10,15C10,13.89 10.89,13 12,13A2,2 0 0,1 14,15A2,2 0 0,1 12,17M18,20V10H6V20H18M18,8A2,2 0 0,1 20,10V20A2,2 0 0,1 18,22H6C4.89,22 4,21.1 4,20V10C4,8.89 4.89,8 6,8H7V6A5,5 0 0,1 12,1A5,5 0 0,1 17,6V8H18M12,3A3,3 0 0,0 9,6V8H15V6A3,3 0 0,0 12,3Z"></path>
    </svg>

    <!-- ???? -->
    <svg id="auth_note" width="24" height="24" viewBox="0 0 24 24" y="1344">
        <path d="M12,1L3,5V11C3,16.55 6.84,21.74 12,23C17.16,21.74 21,16.55 21,11V5L12,1Z"></path>
    </svg>

    <!-- ???? -->
    <svg id="public_note" width="24" height="24" viewBox="0 0 24 24" y="1368">
        <path d="M14,10V4.5L19.5,10M5,3C3.89,3 3,3.89 3,5V19A2,2 0 0,0 5,21H19A2,2 0 0,0 21,19V9L15,3H5Z"></path>
    </svg>

    <!-- ???? -->
    <svg id="lock_icon" width="24" height="24"  viewBox="0 0 24 24" y="1392">
        <path d="M12,17A2,2 0 0,0 14,15C14,13.89 13.1,13 12,13A2,2 0 0,0 10,15A2,2 0 0,0 12,17M18,8A2,2 0 0,1 20,10V20A2,2 0 0,1 18,22H6A2,2 0 0,1 4,20V10C4,8.89 4.9,8 6,8H7V6A5,5 0 0,1 12,1A5,5 0 0,1 17,6V8H18M12,3A3,3 0 0,0 9,6V8H15V6A3,3 0 0,0 12,3Z"></path>
    </svg>

    <!-- ???? -->
    <svg id="tune" width="24" height="24" viewBox="0 0 24 24" y="1416">
        <path d="M3,17V19H9V17H3M3,5V7H13V5H3M13,21V19H21V17H13V15H11V21H13M7,9V11H3V13H7V15H9V9H7M21,13V11H11V13H21M15,9H17V7H21V5H17V3H15V9Z"/>
    </svg>

    <!--citation "cited by" -->
    <svg id="citedBy" width="24" height="24"  viewBox="0 0 24 24" y="1440">
        <path d="M14,4L16.29,6.29L13.41,9.17L14.83,10.59L17.71,7.71L20,10V4M10,4H4V10L6.29,7.71L11,12.41V20H13V11.59L7.71,6.29"></path>
    </svg>

    <!--citation "cited in this"-->
    <svg id="citing" width="24" height="24"  viewBox="0 0 24 24" y="1464">
        <path d="M17,20.41L18.41,19L15,15.59L13.59,17M7.5,8H11V13.59L5.59,19L7,20.41L13,14.41V8H16.5L12,3.5"></path>
    </svg>

    <!--double chevron up-->
	<svg id="double-chevron-up"  width="24" height="24"  viewBox="0 0 24 24" y="1488">
 		<path d="M7.41,18.41L6,17L12,11L18,17L16.59,18.41L12,13.83L7.41,18.41M7.41,12.41L6,11L12,5L18,11L16.59,12.41L12,7.83L7.41,12.41Z" />
    </svg>

    <!-- database -->
    <svg id="database" width="24" height="24" viewBox="0 0 24 24" y="1514">
        <path d="M12,3C7.58,3 4,4.79 4,7C4,9.21 7.58,11 12,11C16.42,11 20,9.21 20,7C20,4.79 16.42,3 12,3M4,9V12C4,14.21 7.58,16 12,16C16.42,16 20,14.21 20,12V9C20,11.21 16.42,13 12,13C7.58,13 4,11.21 4,9M4,14V17C4,19.21 7.58,21 12,21C16.42,21 20,19.21 20,17V14C20,16.21 16.42,18 12,18C7.58,18 4,16.21 4,14Z" />
    </svg>

    <!-- tag outline -->
    <svg id="tag-outline" width="24" height="24" viewBox="0 0 24 24" y="1538">
        <path d="M5.5,7A1.5,1.5 0 0,0 7,5.5A1.5,1.5 0 0,0 5.5,4A1.5,1.5 0 0,0 4,5.5A1.5,1.5 0 0,0 5.5,7M21.41,11.58C21.77,11.94 22,12.44 22,13C22,13.55 21.78,14.05 21.41,14.41L14.41,21.41C14.05,21.77 13.55,22 13,22C12.45,22 11.95,21.77 11.58,21.41L2.59,12.41C2.22,12.05 2,11.55 2,11V4C2,2.89 2.89,2 4,2H11C11.55,2 12.05,2.22 12.41,2.58L21.41,11.58M13,20L20,13L11.5,4.5L4.5,11.5L13,20Z" />
    </svg>

	<!-- toggle list -->
    <svg id="toggle-list" width="24" height="24" viewBox="0 0 24 24" y="1562">
        <path d="M16,5V11H21V5M10,11H15V5H10M16,18H21V12H16M10,18H15V12H10M4,18H9V12H4M4,11H9V5H4V11Z" />
    </svg>

    <!-- toggle items -->
    <svg id="toggle-items" width="24" height="24" viewBox="0 0 24 24" y="1586">
        <path d="M3,4H21V8H3V4M3,10H21V14H3V10M3,16H21V20H3V16Z" />
    </svg>

	<!-- peer-reviewed -->
    <svg id="peer-reviewed" width="24" height="24" viewBox="0 0 24 24" y="1610">
        <path d="M12,13c-2.4-2.2-5.5-3.5-9-3.5v11c3.5,0,6.6,1.4,9,3.5c2.4-2.2,5.5-3.5,9-3.5v-11C17.5,9.5,14.4,10.8,12,13z M12,3
                c-1.1,0-1.9,0.9-1.9,1.9s0.9,1.9,1.9,1.9s1.9-0.9,1.9-1.9S13.1,3,12,3 M12,8.1c-1.8,0-3.2-1.4-3.2-3.2s1.4-3.2,3.2-3.2
                s3.2,1.4,3.2,3.2S13.8,8.1,12,8.1 M12,0.1c-3.2,0-5.9,2-7.1,4.8C6.1,7.7,8.8,9.7,12,9.7s5.9-2,7.1-4.8C17.9,2.1,15.2,0.1,12,0.1z"></path>
    </svg>

    <!-- open access -->
    <svg id="open-access" width="24" height="24" viewBox="0 0 24 24" y="1634">
        <path d="M17.9,11.9V6.1c0-3.3-2.7-5.9-5.9-5.9c-3.3,0-5.9,2.6-5.9,5.9c0,0,0,0,0,1.3h2.4c0-1.3,0-1.3,0-1.3c0-2,1.6-3.5,3.6-3.5
            c2,0,3.6,1.6,3.6,3.6v3.8c-1.1-0.6-2.3-0.9-3.6-0.9c-4.1,0-7.5,3.4-7.5,7.5s3.4,7.5,7.5,7.5s7.5-3.4,7.5-7.5
            C19.5,14.7,18.9,13.1,17.9,11.9z M12,21.6c-2.8,0-5.1-2.3-5.1-5.1c0-2.8,2.3-5.1,5.1-5.1c2.8,0,5.1,2.3,5.1,5.1
            C17.1,19.3,14.9,21.6,12,21.6z M14.1,16.5c0,1.1-0.9,2.1-2.1,2.1s-2.1-0.9-2.1-2.1c0-1.1,0.9-2.1,2.1-2.1S14.1,15.3,14.1,16.5z"></path>
    </svg>

	<!-- Exclude multiple facet -->
	<svg id="exclude-facet" width="24" height="24" viewBox="0 0 24 24" y="1658">
        <path d="M22.2,20.9l-1.3-1.3C21,19.4,21,19.2,21,19v-8h-2v6.7l-4.6-4.6l6-6l-1.4-1.4l-6,6L6.3,5H15V3H5C4.8,3,4.6,3,4.4,3.1L3,1.7 L1.8,2.9l1.3,1.3C3.1,4.4,3,4.7,3,5v14c0,1.1,0.9,2,2,2h14c0.3,0,0.6-0.1,0.8-0.2l1.2,1.2L22.2,20.9z M5,19V6l6.9,6.9l-1.4,1.4 l-3.1-3.1L6,12.6l4.5,4.5l2.8-2.8L18,19H5z"></path>
    </svg>

    <!-- Include multiple facet -->
	<svg id="include-facet" width="24" height="24" viewBox="0 0 24 24" y="1682">
        <path d="M19,19H5V5H15V3H5C3.89,3 3,3.89 3,5V19A2,2 0 0,0 5,21H19A2,2 0 0,0 21,19V11H19M7.91,10.08L6.5,11.5L11,16L21,6L19.59,4.58L11,13.17L7.91,10.08Z"></path>
    </svg>

    <!-- remove -->
	<svg id="remove" width="24" height="24" viewBox="0 0 24 24" y="1706">
        <path d="M19 6.41l-1.41-1.41-5.59 5.59-5.59-5.59-1.41 1.41 5.59 5.59-5.59 5.59 1.41 1.41 5.59-5.59 5.59 5.59 1.41-1.41-5.59-5.59z"></path>
    </svg>

    <!-- makes a facet persistent -->
	<svg id="persistent" width="24" height="24" viewBox="0 0 24 24" y="1730">
        <path d="M12,17A2,2 0 0,0 14,15C14,13.89 13.1,13 12,13A2,2 0 0,0 10,15A2,2 0 0,0 12,17M18,8A2,2 0 0,1 20,10V20A2,2 0 0,1 18,22H6A2,2 0 0,1 4,20V10C4,8.89 4.9,8 6,8H7V6A5,5 0 0,1 12,1A5,5 0 0,1 17,6V8H18M12,3A3,3 0 0,0 9,6V8H15V6A3,3 0 0,0 12,3Z"></path>
    </svg>

    <!-- makes a facet not persistent -->
	<svg id="remove-persistent" width="24" height="24" viewBox="0 0 24 24" y="1754">
        <path d="M18,20V10H6V20H18M18,8A2,2 0 0,1 20,10V20A2,2 0 0,1 18,22H6C4.89,22 4,21.1 4,20V10A2,2 0 0,1 6,8H15V6A3,3 0 0,0 12,3A3,3 0 0,0 9,6H7A5,5 0 0,1 12,1A5,5 0 0,1 17,6V8H18M12,17A2,2 0 0,1 10,15A2,2 0 0,1 12,13A2,2 0 0,1 14,15A2,2 0 0,1 12,17Z"></path>
    </svg>

    <!-- Error messege no results -->
	<svg id="error-no-results" width="24" height="24" viewBox="0 0 24 24" y="1778">
	    <path d="M12,3.4c4.7,0,8.6,3.8,8.6,8.6s-3.8,8.6-8.6,8.6S3.4,16.7,3.4,12S7.3,3.4,12,3.4 M12,2C6.5,2,2,6.5,2,12s4.5,10,10,10
		s10-4.5,10-10S17.5,2,12,2L12,2z M12.2,17.3c-0.1,0-0.2,0-0.3-0.1c-0.1-0.2-0.1-0.4,0.1-0.5c0.9-0.7,1.9-1.3,2.9-1.7
		c0.9-0.4,1.9-0.6,2.9-0.8c0.2,0,0.4,0.1,0.4,0.3s-0.1,0.4-0.3,0.4c-0.9,0.1-1.9,0.4-2.8,0.7c-1,0.4-1.9,0.9-2.7,1.6
		C12.4,17.3,12.3,17.3,12.2,17.3z M14.4,11.4c-0.8,0-1.5-0.7-1.5-1.5s0.7-1.5,1.5-1.5c0.8,0,1.5,0.7,1.5,1.5S15.2,11.4,14.4,11.4z
		 M14.4,9.1c-0.4,0-0.8,0.3-0.8,0.8s0.3,0.8,0.8,0.8s0.8-0.3,0.8-0.8S14.8,9.1,14.4,9.1z M8.6,11.4C7.7,11.4,7,10.8,7,9.9
		s0.7-1.5,1.5-1.5s1.5,0.7,1.5,1.5S9.4,11.4,8.6,11.4z M8.6,9.1c-0.4,0-0.8,0.3-0.8,0.8s0.3,0.8,0.8,0.8s0.8-0.3,0.8-0.8
		S9,9.1,8.6,9.1z"/>
	</svg>

	<!-- Error attention -->
	<svg id="error-attention" width="24" height="24" viewBox="0 0 24 24" y="1802">
    	<path d="M12,2L1,21H23M12,6L19.53,19H4.47M11,10V14H13V10M11,16V18H13V16"/>
    </svg>

    <!-- Sign In error message restricted permalink-->
    <svg id="sign-in-permalink" width="24" height="24" viewBox="0 0 24 24" y="1706">
        <path d="M10,17.25V14H3V10H10V6.75L15.25,12L10,17.25M8,2H17A2,2 0 0,1 19,4V20A2,2 0 0,1 17,22H8A2,2 0 0,1 6,20V16H8V20H17V4H8V8H6V4A2,2 0 0,1 8,2Z"></path>
    </svg>

    <svg id="email" width="24" height="24" viewBox="0 0 24 24" y="1826" version="1.1">
        <path d="M20,4H4A2,2 0 0,0 2,6V18A2,2 0 0,0 4,20H20A2,2 0 0,0 22,18V6A2,2 0 0,0 20,4M20,18H4V8L12,13L20,8V18M20,6L12,11L4,6V6H20V6Z" id="path3441" />
    </svg>
    <!-- citation -->
    <svg id="citation" width="24" height="24" viewBox="0 0 24 24" y="1850" version="1.1">
        <path d="M14,17H17L19,13V7H13V13H16M6,17H9L11,13V7H5V13H8L6,17Z" id="path3444" />
    </svg>
    <!-- permalink -->
    <svg id="permalink" width="24" height="24" viewBox="0 0 24 24" y="1874" version="1.1">
        <path d="M10.59,13.41C11,13.8 11,14.44 10.59,14.83C10.2,15.22 9.56,15.22 9.17,14.83C7.22,12.88 7.22,9.71 9.17,7.76V7.76L12.71,4.22C14.66,2.27 17.83,2.27 19.78,4.22C21.73,6.17 21.73,9.34 19.78,11.29L18.29,12.78C18.3,11.96 18.17,11.14 17.89,10.36L18.36,9.88C19.54,8.71 19.54,6.81 18.36,5.64C17.19,4.46 15.29,4.46 14.12,5.64L10.59,9.17C9.41,10.34 9.41,12.24 10.59,13.41M13.41,9.17C13.8,8.78 14.44,8.78 14.83,9.17C16.78,11.12 16.78,14.29 14.83,16.24V16.24L11.29,19.78C9.34,21.73 6.17,21.73 4.22,19.78C2.27,17.83 2.27,14.66 4.22,12.71L5.71,11.22C5.7,12.04 5.83,12.86 6.11,13.65L5.64,14.12C4.46,15.29 4.46,17.19 5.64,18.36C6.81,19.54 8.71,19.54 9.88,18.36L13.41,14.83C14.59,13.66 14.59,11.76 13.41,10.59C13,10.2 13,9.56 13.41,9.17Z"/>
    </svg>
    <!-- print -->
    <svg id="print" width="24" height="24" viewBox="0 0 24 24" y="1898" version="1.1">
        <path d="M18,3H6V7H18M19,12A1,1 0 0,1 18,11A1,1 0 0,1 19,10A1,1 0 0,1 20,11A1,1 0 0,1 19,12M16,19H8V14H16M19,8H5A3,3 0 0,0 2,11V17H6V21H18V17H22V11A3,3 0 0,0 19,8Z"/>
    </svg>
    <!-- info -->
    <svg id="info" width="24" height="24" viewBox="0 0 24 24" y="1922" version="1.1">
        <path d="M12 2C6.48 2 2 6.48 2 12s4.48 10 10 10 10-4.48 10-10S17.52 2 12 2zm1 15h-2v-6h2v6zm0-8h-2V7h2v2z"/>
    </svg>
    <!-- delicious -->
    <svg id="delicious" width="24" height="24" viewBox="0 0 24 24" y="1946" version="1.1">
        <path transform="translate(0,-96)" d="M 4.0078125 97.833984 C 2.9032425 97.833984 2.0078125 98.729414 2.0078125 99.833984 L 2.0078125 115.83398 C 2.0078125 116.93858 2.9032425 117.83398 4.0078125 117.83398 L 20.007812 117.83398 C 21.112413 117.83398 22.007812 116.93858 22.007812 115.83398 L 22.007812 99.833984 C 22.007812 98.729414 21.112413 97.833984 20.007812 97.833984 L 4.0078125 97.833984 z M 4.0078125 99.833984 L 11.986328 99.833984 L 11.986328 107.70703 L 4.0078125 107.70703 L 4.0078125 99.833984 z M 12.050781 107.85547 L 20.007812 107.85547 L 20.007812 115.83398 L 12.050781 115.83398 L 12.050781 107.85547 z "/>
    </svg>
    <!-- endnote -->
    <svg id="endnote" width="24" height="24" viewBox="0 0 24 24" y="1970" version="1.1">
        <path d="M13,9H18.5L13,3.5V9M6,2H14L20,8V20A2,2 0 0,1 18,22H6C4.89,22 4,21.1 4,20V4C4,2.89 4.89,2 6,2M11,4H6V20H11L18,20V11H11V4Z" />
    </svg>
    <!-- easybib -->
    <svg id="easybib" width="24" height="24" viewBox="0 0 24 24" y="1994" version="1.1">
        <path d="M13,9H18.5L13,3.5V9M6,2H14L20,8V20A2,2 0 0,1 18,22H6C4.89,22 4,21.1 4,20V4C4,2.89 4.89,2 6,2M14,15V11H10V15H12.3C12.6,17 12,18 9.7,19.38L10.85,20.2C13,19 14,16 14,15Z" />
    </svg>
    <!-- refworks -->
    <svg id="refworks" width="24" height="24" viewBox="0 0 24 24" y="2018" version="1.1">
        <path d="M13,9H18.5L13,3.5V9M6,2H14L20,8V20A2,2 0 0,1 18,22H6C4.89,22 4,21.1 4,20V4C4,2.89 4.89,2 6,2M15,18V16H6V18H15M18,14V12H6V14H18Z" />
    </svg>
    <!-- ris -->
    <svg id="ris" width="24" height="24" viewBox="0 0 24 24" y="2042" version="1.1">
        <path d="M6,2C4.89,2 4,2.9 4,4V20A2,2 0 0,0 6,22H18A2,2 0 0,0 20,20V8L14,2M13,3.5L18.5,9H13M8.93,12.22H16V19.29L13.88,17.17L11.05,20L8.22,17.17L11.05,14.35" />
    </svg>
    <svg width="24" height="24" viewBox="0 0 24 24" id="prm_ic_description_24px" y="2066">
        <path d="M14 2H6c-1.1 0-1.99.9-1.99 2L4 20c0 1.1.89 2 1.99 2H18c1.1 0 2-.9 2-2V8l-6-6zm2 16H8v-2h8v2zm0-4H8v-2h8v2zm-3-5V3.5L18.5 9H13z"/>
    </svg>
    <svg width="24" height="24" viewBox="0 0 24 24" id="prm_ic_content_copy_24px" y="2090">
        <path d="M16 1H4c-1.1 0-2 .9-2 2v14h2V3h12V1zm3 4H8c-1.1 0-2 .9-2 2v14c0 1.1.9 2 2 2h11c1.1 0 2-.9 2-2V7c0-1.1-.9-2-2-2zm0 16H8V7h11v14z"/>
    </svg>


</svg>
